<?xml version="1.0" encoding="UTF-8"?>
<svg data-bbox="0 0 376.8 296.5" xmlns="http://www.w3.org/2000/svg" viewBox="0 0 376.8 296.5" height="296.5" width="376.8" data-type="ugc">
    <g>
        <path d="M341.1 116.4c2.1 8 10.3 12.8 18.4 10.6 8-2.1 12.8-10.3 10.6-18.4-2.1-8-10.3-12.8-18.4-10.6-7.9 2.2-12.7 10.4-10.6 18.4z" fill="#2a4c87"/>
        <path d="M320.8 132.4c5.4-1.5 8.7-7.1 7.2-12.5s-7.1-8.7-12.5-7.2-8.7 7.1-7.2 12.5c1.4 5.4 7 8.6 12.5 7.2z" fill="#2a4c87"/>
        <path d="M290.8 137.6c4-1.1 6.4-5.2 5.3-9.2s-5.2-6.4-9.2-5.3-6.4 5.2-5.3 9.2 5.2 6.4 9.2 5.3z" fill="#2a4c87"/>
        <path d="M267.5 141.1c2.5-.7 4-3.3 3.4-5.8s-3.3-4-5.8-3.4c-2.5.7-4 3.3-3.4 5.8s3.2 4 5.8 3.4z" fill="#2e4e88"/>
        <path d="M330 86c3.8 6.5 12.1 8.8 18.6 5s8.8-12.1 5-18.6-12.1-8.8-18.6-5-8.8 12.1-5 18.6z" fill="#1f3d70"/>
        <path d="M299.9 103.3c2.6 4.6 8.4 6.1 13 3.5s6.1-8.4 3.5-13-8.4-6.1-13-3.5c-4.5 2.6-6.1 8.4-3.5 13z" fill="#1f3d70"/>
        <path d="M278.5 107.8c-3.3 1.9-4.4 6-2.5 9.3s6 4.4 9.3 2.5 4.4-6 2.5-9.3c-1.8-3.2-6-4.3-9.3-2.5z" fill="#1f3d70"/>
        <path d="M259.4 121.6c-2.1 1.2-2.9 3.9-1.7 6s3.9 2.9 6 1.7 2.9-3.9 1.7-6-3.9-2.9-6-1.7z" fill="#1f3d70"/>
        <path d="M328.5 59.3c4.8-4.8 4.8-12.5 0-17.3s-12.5-4.8-17.3 0-4.8 12.5 0 17.3c4.7 4.8 12.5 4.8 17.3 0z" fill="#194c88"/>
        <path d="M298.6 71.8c-3.5-3.5-9.1-3.5-12.5 0-3.5 3.5-3.5 9.1 0 12.5 3.5 3.5 9.1 3.5 12.5 0 3.5-3.5 3.5-9.1 0-12.5z" fill="#194c88"/>
        <path d="M266.6 95.1c-2.4 2.4-2.4 6.3 0 8.7s6.3 2.4 8.7 0 2.4-6.3 0-8.6c-2.4-2.5-6.3-2.5-8.7-.1z" fill="#194c88"/>
        <path d="M251.5 118.9c1.6 1.6 4.2 1.6 5.8 0s1.6-4.2 0-5.8-4.2-1.6-5.8 0-1.6 4.2 0 5.8z" fill="#194c88"/>
        <path d="M285.4 38.7c5.5 3.2 12.6 1.3 15.8-4.2s1.3-12.6-4.2-15.8-12.6-1.3-15.8 4.2c-3.3 5.5-1.4 12.6 4.2 15.8-.1 0 0 0 0 0z" fill="#3468a3"/>
        <path d="M264.7 58.2c-2.3 3.9-.9 8.9 3 11.2s8.9.9 11.2-3 .9-8.9-3-11.2c-4-2.3-9-.9-11.2 3z" fill="#3468a3"/>
        <path d="M259.3 83.8c-2.6-1.5-5.9-.6-7.4 2s-.6 5.9 2 7.4 5.9.6 7.4-2 .6-5.9-2-7.4z" fill="#3468a3"/>
        <path d="M246.7 105.6c-1.8-1-4.1-.4-5.1 1.4s-.4 4.1 1.4 5.1 4.1.4 5.1-1.4.4-4.1-1.4-5.1z" fill="#3468a3"/>
        <path d="M255 25.4c5.8 1.6 11.8-1.9 13.3-7.7 1.6-5.8-1.9-11.8-7.7-13.3s-11.8 1.9-13.3 7.7c-1.6 5.8 1.9 11.8 7.7 13.3z" fill="#4c8dcb"/>
        <path d="M245.8 59.6c4 1.1 8.1-1.3 9.2-5.3s-1.3-8.1-5.3-9.2-8.1 1.3-9.2 5.3c-1 4 1.3 8.1 5.3 9.2z" fill="#4c8dcb"/>
        <path d="M238.6 86.6c2.7.7 5.5-.9 6.2-3.6s-.9-5.5-3.6-6.2-5.5.9-6.2 3.6c-.7 2.6.9 5.4 3.6 6.2z" fill="#4c8dcb"/>
        <path d="M230.6 103.4c-.5 1.8.6 3.7 2.4 4.2s3.7-.6 4.2-2.4-.6-3.7-2.4-4.2c-1.9-.5-3.8.6-4.2 2.4z" fill="#4c8dcb"/>
        <path d="M222 20.4c5.6 0 10.2-4.6 10.2-10.2S227.6 0 222 0s-10.2 4.6-10.2 10.2c0 5.7 4.6 10.2 10.2 10.2z" fill="#3498b3"/>
        <path d="M222 42.2c-3.8 0-6.8 3-6.8 6.8s3 6.8 6.8 6.8 6.8-3 6.8-6.8c0-3.7-3-6.8-6.8-6.8z" fill="#3498b3"/>
        <path d="M226.8 79.3c0-2.6-2.1-4.8-4.8-4.8s-4.8 2.1-4.8 4.8 2.1 4.8 4.8 4.8 4.8-2.2 4.8-4.8z" fill="#3498b3"/>
        <path d="M222 99.7c-1.7 0-3.1 1.4-3.1 3.1s1.4 3.1 3.1 3.1 3.1-1.4 3.1-3.1-1.4-3.1-3.1-3.1z" fill="#3498b3"/>
        <path d="M188.7 24.2c5.1-1.4 8.1-6.6 6.7-11.7s-6.6-8.1-11.7-6.7-8.1 6.6-6.7 11.7c1.4 5 6.7 8 11.7 6.7z" fill="#0aa496"/>
        <path d="M190.4 54c.9 3.3 4.2 5.2 7.5 4.3s5.2-4.2 4.3-7.5-4.2-5.2-7.5-4.3c-3.2.9-5.2 4.3-4.3 7.5z" fill="#0aa496"/>
        <path d="M199.9 82.9c.6 2.4 3.1 3.8 5.4 3.1 2.4-.6 3.8-3.1 3.1-5.4-.6-2.4-3.1-3.8-5.4-3.1-2.4.6-3.7 3-3.1 5.4z" fill="#0aa496"/>
        <path d="M207.6 105.1c.4 1.5 1.9 2.3 3.3 1.9 1.5-.4 2.3-1.9 1.9-3.3-.4-1.5-1.9-2.3-3.3-1.9s-2.3 1.8-1.9 3.3z" fill="#0aa496"/>
        <path d="M157.4 36.5c4.2-2.4 5.7-7.9 3.3-12.1s-7.9-5.7-12.1-3.3-5.7 7.9-3.3 12.1c2.5 4.3 7.9 5.7 12.1 3.3z" fill="#00aa75"/>
        <path d="M175.1 67.1c2.6-1.5 3.5-4.8 2-7.4s-4.8-3.5-7.4-2-3.5 4.8-2 7.4c1.4 2.6 4.8 3.5 7.4 2z" fill="#00aa75"/>
        <path d="M189.5 92.2c2-1.1 2.6-3.6 1.5-5.6s-3.6-2.6-5.6-1.5-2.6 3.6-1.5 5.6c1.2 1.9 3.7 2.6 5.6 1.5z" fill="#00aa75"/>
        <path d="M201.3 107.8c-.7-1.1-2.1-1.5-3.3-.9-1.1.7-1.5 2.1-.9 3.3.7 1.1 2.1 1.5 3.2.9 1.3-.7 1.7-2.2 1-3.3z" fill="#00aa75"/>
        <path d="M130.1 56.6c3.2-3.2 3.2-8.4 0-11.6s-8.4-3.2-11.6 0-3.2 8.4 0 11.6c3.3 3.2 8.5 3.2 11.6 0z" fill="#4fba6a"/>
        <path d="M155.2 74.9c-1.9-1.9-4.9-1.9-6.7 0-1.9 1.9-1.9 4.9 0 6.7 1.9 1.9 4.9 1.9 6.7 0s1.8-4.9 0-6.7z" fill="#4fba6a"/>
        <path d="M175.9 97c-1.5-1.5-3.8-1.5-5.3 0s-1.5 3.8 0 5.3 3.8 1.5 5.3 0c1.4-1.5 1.4-3.8 0-5.3z" fill="#4fba6a"/>
        <path d="M191.3 114.8c-.8-.8-2.1-.7-2.8.1-.8.8-.7 2.1.1 2.8s2 .7 2.8 0c.7-.8.7-2.1-.1-2.9z" fill="#4fba6a"/>
        <path d="M98.5 85.7c3.6 2.1 8.2.8 10.2-2.7 2.1-3.6.8-8.2-2.7-10.2-3.6-2.1-8.2-.8-10.2 2.7-2.1 3.5-.9 8.1 2.7 10.2z" fill="#7ec45f"/>
        <path d="M138.1 95.3c-2-1.1-4.4-.4-5.6 1.5-1.1 2-.4 4.4 1.5 5.6 2 1.1 4.4.5 5.6-1.5 1.1-2 .4-4.5-1.5-5.6z" fill="#7ec45f"/>
        <path d="M164 111c-1.6-.9-3.7-.4-4.6 1.3-.9 1.6-.4 3.7 1.3 4.6 1.6.9 3.7.4 4.6-1.2s.3-3.7-1.3-4.7z" fill="#7ec45f"/>
        <path d="M360.4 131.9c-9 0-16.4 7.3-16.4 16.4 0 9 7.3 16.4 16.4 16.4 9 0 16.3-7.3 16.4-16.3-.1-9.1-7.4-16.5-16.4-16.5z" fill="#4c609b"/>
        <path d="M333.3 148.3c0-6.5-5.2-11.7-11.7-11.7s-11.7 5.2-11.7 11.7 5.2 11.7 11.7 11.7c6.4 0 11.7-5.2 11.7-11.7z" fill="#4c609b"/>
        <path d="M291.3 140.3c-4.4 0-8 3.6-8 8s3.6 8 8 8 8-3.6 8-8-3.6-8-8-8z" fill="#4c609b"/>
        <path d="M273 148.3c0-2.9-2.3-5.2-5.2-5.2s-5.2 2.3-5.2 5.2 2.3 5.2 5.2 5.2 5.2-2.3 5.2-5.2z" fill="#54669f"/>
        <path d="M359.5 169.5c-8-2.2-16.2 2.6-18.4 10.6s2.6 16.2 10.6 18.4 16.2-2.6 18.4-10.6v-.1c2.1-7.9-2.7-16.1-10.6-18.3z" fill="#746fa7"/>
        <path d="M315.5 183.8c5.4 1.5 11-1.8 12.5-7.2s-1.8-11-7.2-12.5-11 1.8-12.5 7.2 1.7 11 7.2 12.5z" fill="#746fa7"/>
        <path d="M286.9 173.4c4 1.1 8.1-1.3 9.2-5.3s-1.3-8.1-5.3-9.2-8.1 1.3-9.2 5.3c-1 4 1.3 8.1 5.3 9.2z" fill="#746fa7"/>
        <path d="M265 164.7c2.5.7 5.1-.8 5.8-3.4.7-2.5-.8-5.1-3.4-5.8-2.5-.7-5.1.8-5.8 3.4-.7 2.4.8 5.1 3.4 5.8z" fill="#746fa7"/>
        <path d="M348.6 205.5c-6.5-3.8-14.8-1.5-18.6 5s-1.5 14.8 5 18.6 14.8 1.5 18.6-5c3.7-6.5 1.5-14.8-5-18.6z" fill="#99558e"/>
        <path d="M316.5 202.7c2.6-4.6 1.1-10.4-3.5-13s-10.4-1.1-13 3.5-1.1 10.4 3.5 13c4.5 2.6 10.3 1 13-3.5z" fill="#99558e"/>
        <path d="M287.8 186.2c1.9-3.3.8-7.4-2.5-9.3s-7.4-.8-9.3 2.5-.8 7.4 2.5 9.3c3.3 1.8 7.4.7 9.3-2.5z" fill="#99558e"/>
        <path d="M265.5 173.2c1.2-2.1.5-4.8-1.6-6.1-2.1-1.2-4.8-.5-6.1 1.6s-.5 4.8 1.6 6.1h.1c2.1 1.2 4.8.5 6-1.6z" fill="#99558e"/>
        <path d="M311.1 237.2c-4.8 4.8-4.8 12.5 0 17.3s12.5 4.8 17.3 0 4.8-12.5 0-17.3c-4.7-4.7-12.5-4.7-17.3 0z" fill="#af3379"/>
        <path d="M298.6 224.7c3.5-3.5 3.5-9.1 0-12.5-3.5-3.5-9.1-3.5-12.5 0-3.5 3.5-3.5 9.1 0 12.5 3.4 3.5 9 3.5 12.5 0z" fill="#af3379"/>
        <path d="M275.3 201.4c2.4-2.4 2.4-6.3 0-8.7s-6.3-2.4-8.7 0-2.4 6.3 0 8.6c2.4 2.5 6.3 2.5 8.7.1z" fill="#af3379"/>
        <path d="M251.5 183.3c1.6 1.6 4.2 1.6 5.8 0s1.6-4.2 0-5.8-4.2-1.6-5.8 0-1.6 4.2 0 5.8z" fill="#af3379"/>
        <path d="M285.4 257.8c-5.5 3.2-7.4 10.3-4.2 15.8s10.3 7.4 15.8 4.2 7.4-10.3 4.2-15.8-10.3-7.4-15.8-4.2z" fill="#be266a"/>
        <path d="M278.8 230.2c-2.3-3.9-7.2-5.3-11.2-3-3.9 2.3-5.3 7.2-3 11.2 2.3 3.9 7.2 5.3 11.2 3 3.9-2.3 5.3-7.3 3-11.2z" fill="#be266a"/>
        <path d="M259.3 212.7c2.6-1.5 3.5-4.8 2-7.4s-4.8-3.5-7.4-2-3.5 4.8-2 7.4 4.8 3.5 7.4 2z" fill="#be266a"/>
        <path d="M243 184.4c-1.8 1-2.4 3.3-1.4 5.1s3.3 2.4 5.1 1.4 2.4-3.3 1.4-5.1-3.3-2.4-5.1-1.4z" fill="#be266a"/>
        <path d="M255 271.1c-5.8 1.6-9.3 7.5-7.7 13.3s7.5 9.3 13.3 7.7 9.3-7.5 7.7-13.3c-1.5-5.8-7.5-9.3-13.3-7.7z" fill="#d4525c"/>
        <path d="M249.7 251.3c4-1.1 6.4-5.2 5.3-9.2s-5.2-6.4-9.2-5.3-6.3 5.2-5.3 9.2c1.1 4.1 5.2 6.4 9.2 5.3z" fill="#d4525c"/>
        <path d="M244.8 213.5c-.7-2.7-3.5-4.3-6.2-3.6s-4.3 3.5-3.6 6.2 3.5 4.3 6.2 3.6c2.8-.6 4.4-3.4 3.6-6.2z" fill="#d4525c"/>
        <path d="M237.1 191.3c-.5-1.8-2.4-2.9-4.2-2.4s-2.9 2.4-2.4 4.2 2.3 2.9 4.2 2.4c1.8-.5 2.9-2.4 2.4-4.2z" fill="#d4525c"/>
        <path d="M222 276.1c-5.6 0-10.2 4.6-10.2 10.2s4.6 10.2 10.2 10.2 10.2-4.5 10.2-10.2c0-5.6-4.5-10.2-10.2-10.2z" fill="#e0654f"/>
        <path d="M215.2 247.5c0 3.8 3 6.8 6.8 6.8s6.8-3 6.8-6.8-3-6.8-6.8-6.8c-3.7 0-6.8 3-6.8 6.8z" fill="#e0654f"/>
        <path d="M222 221.9c2.6 0 4.8-2.1 4.8-4.8s-2.1-4.8-4.8-4.8c-2.6 0-4.8 2.1-4.8 4.8.1 2.7 2.2 4.8 4.8 4.8z" fill="#e0654f"/>
        <path d="M222 190.6c-1.7 0-3.1 1.4-3.1 3.1s1.4 3.1 3.1 3.1 3.1-1.4 3.1-3.1-1.4-3.1-3.1-3.1z" fill="#e0654f"/>
        <path d="M188.7 272.3c-5.1-1.4-10.3 1.7-11.7 6.7-1.4 5.1 1.7 10.3 6.7 11.7 5.1 1.4 10.3-1.7 11.7-6.7 1.4-5.1-1.6-10.3-6.7-11.7z" fill="#f57f2a"/>
        <path d="M197.9 238.1c-3.3-.9-6.6 1.1-7.5 4.3-.9 3.3 1.1 6.6 4.3 7.5 3.3.9 6.6-1.1 7.5-4.3s-1-6.6-4.3-7.5z" fill="#f57f2a"/>
        <path d="M205.3 210.5c-2.4-.6-4.8.8-5.4 3.1-.6 2.4.8 4.8 3.1 5.4 2.4.6 4.8-.8 5.4-3.1.7-2.3-.7-4.7-3.1-5.4z" fill="#f57f2a"/>
        <path d="M212.9 192.8c.4-1.5-.5-3-1.9-3.3s-3 .5-3.3 1.9.5 3 1.9 3.3c1.4.4 2.9-.4 3.3-1.9z" fill="#f57f2a"/>
        <path d="M157.4 260c-4.2-2.4-9.6-1-12.1 3.2-2.4 4.2-1 9.6 3.2 12.1 4.2 2.4 9.6 1 12.1-3.2s1-9.6-3.2-12.1z" fill="#f89828"/>
        <path d="M175.1 229.4c-2.6-1.5-5.9-.6-7.4 2s-.6 5.9 2 7.4 5.9.6 7.4-2 .6-5.9-2-7.4z" fill="#f89828"/>
        <path d="M185.5 211.4c2 1.1 4.5.5 5.6-1.5s.5-4.5-1.5-5.6-4.5-.5-5.6 1.5-.5 4.5 1.5 5.6z" fill="#f89828"/>
        <path d="M200.5 185.4c-1.1-.7-2.6-.3-3.2.9-.7 1.1-.3 2.6.9 3.2 1.1.7 2.6.3 3.2-.9.6-1 .2-2.5-.9-3.2z" fill="#f89828"/>
        <path d="M118.6 239.9c-3.2 3.2-3.2 8.4 0 11.6s8.4 3.2 11.6 0 3.2-8.4 0-11.6-8.4-3.2-11.6 0z" fill="#fec127"/>
        <path d="M148.5 214.9c-1.9 1.9-1.9 4.9 0 6.7 1.9 1.9 4.9 1.9 6.7 0s1.9-4.9 0-6.7c-1.8-1.9-4.9-1.9-6.7 0z" fill="#fec127"/>
        <path d="M170.6 194.2c-1.5 1.5-1.5 3.8 0 5.3s3.8 1.5 5.3 0 1.5-3.8 0-5.3-3.9-1.5-5.3 0z" fill="#fec127"/>
        <path d="M191.3 178.8c-.8-.8-2.1-.7-2.8.1-.8.8-.7 2.1.1 2.8s2 .7 2.8 0c.7-.8.7-2.1-.1-2.9z" fill="#fec127"/>
        <path d="M98.7 210.6c-3.6 2.1-4.8 6.6-2.7 10.2s6.6 4.8 10.2 2.7 4.8-6.6 2.7-10.2c-2-3.6-6.6-4.8-10.2-2.7z" fill="#fed627"/>
        <path d="M134 194.1c-1.9 1.1-2.6 3.6-1.5 5.6 1.1 1.9 3.6 2.6 5.6 1.5 1.9-1.1 2.6-3.6 1.5-5.6-1.1-1.9-3.6-2.6-5.6-1.5z" fill="#fed627"/>
        <path d="M160.6 179.6c-1.6.9-2.2 3-1.2 4.6.9 1.6 3 2.2 4.6 1.2 1.6-.9 2.2-3 1.2-4.6-.9-1.6-3-2.2-4.6-1.2z" fill="#fed627"/>
        <path d="M83.5 124.5h12v46.2h-12zm7.3-20.6c-3.7-1-7.5 1.2-8.5 4.9s1.2 7.5 4.9 8.5 7.5-1.2 8.5-4.9-1.2-7.6-4.9-8.5zm41.8 67.8c-2.9 0-5.8-.5-8.5-1.7-2.4-1.1-4.5-2.8-6.1-4.9v28.7h-11.7v-69.3h11.6v6.4c1.5-2.3 3.6-4.1 6.1-5.4 2.6-1.3 5.5-2 8.5-2 2.9 0 5.7.6 8.4 1.7s5.1 2.8 7.1 4.8c2.1 2.2 3.8 4.8 4.9 7.6 1.3 3.2 1.9 6.5 1.8 9.9.1 3.4-.6 6.8-1.9 10-1.2 2.8-2.9 5.4-5 7.6-3.9 4.2-9.5 6.6-15.2 6.6zm-2.4-11.2c1.7 0 3.4-.3 5-1 1.5-.7 2.9-1.6 4.1-2.8s2.1-2.6 2.7-4.1c1.3-3.3 1.3-6.9 0-10.2-.6-1.5-1.6-2.9-2.7-4.1-1.2-1.2-2.6-2.1-4.1-2.8-1.6-.7-3.3-1-5-1-3.4 0-6.7 1.4-9.2 3.8-1.2 1.2-2.1 2.6-2.7 4.1-1.3 3.3-1.3 6.9 0 10.1.6 1.5 1.5 2.9 2.7 4.1 2.5 2.6 5.8 4 9.2 3.9zm33.1-36h11.6v7.1c1-2.5 2.7-4.6 5-6 2.4-1.3 5-2 7.8-1.9 1.5 0 2.9.2 4.3.5 1.2.3 2.4.7 3.5 1.3l-4.3 11.6c-.8-.5-1.7-.9-2.6-1.2-1.2-.3-2.4-.5-3.6-.5-2.7-.1-5.3.8-7.3 2.5-1.8 1.7-2.7 4.5-2.7 8.3v24.4h-11.7zm58.3 47.2c-3.3 0-6.6-.6-9.7-1.9-2.9-1.2-5.5-3-7.8-5.2-4.5-4.5-7-10.6-7-17 0-3.2.6-6.4 1.8-9.4 1.2-2.9 2.9-5.5 5.1-7.7 9.7-9.4 25.1-9.4 34.8 0 4.5 4.5 7.1 10.6 7.1 17 0 3.2-.6 6.4-1.9 9.3-1.2 2.9-3 5.5-5.1 7.7-2.2 2.2-4.8 4-7.8 5.2-2.9 1.3-6.2 2-9.5 2zm.1-11.2c1.7 0 3.4-.3 5-1 1.5-.7 2.8-1.6 4-2.7 1.2-1.2 2.1-2.6 2.7-4.1 1.3-3.3 1.3-6.9 0-10.1-.6-1.5-1.5-2.9-2.7-4.1s-2.5-2.1-4-2.7c-3.2-1.4-6.8-1.4-9.9 0-1.5.7-2.8 1.6-4 2.7-1.2 1.2-2.1 2.6-2.7 4.1-1.3 3.3-1.3 6.9 0 10.1.6 1.5 1.5 2.9 2.7 4.1s2.5 2.1 4 2.7 3.2 1 4.9 1zM0 124.5h12l9.3 29.5 11-29.5h10.4L53.5 154l9.7-29.5h12l-15.7 46.2H48.4l-11-30.1-11.1 30.1H15z" fill="#351a55"/>
    </g>
</svg>
